<svg width="256" height="256" viewBox="0 0 256 256" fill="none" xmlns="http://www.w3.org/2000/svg">
<path d="M128 245L12.5 15.5H89.5L138.5 106L201 15.5H245L128 245Z" fill="#A076F3"/>
<path d="M107.5 15.5L190 132L146 141.5L245 15.5H107.5Z" fill="#A076F3"/>
<path d="M213.525 61.5455L221.98 42.5L230.434 61.5455L249.5 69.9999L230.434 78.4544L221.98 97.4999L213.525 78.4544L194.459 69.9999L213.525 61.5455Z" fill="#D4FFB5"/>
<path d="M192.352 40.0909L197.667 29L202.981 40.0909L214.072 45.4054L202.981 50.72L197.667 61.8108L192.352 50.72L181.261 45.4054L192.352 40.0909Z" fill="#D4FFB5"/>
<path d="M232.852 32.0909L236.167 25L239.481 32.0909L246.572 35.4054L239.481 38.72L236.167 45.8108L232.852 38.72L225.761 35.4054L232.852 32.0909Z" fill="#D4FFB5"/>
</svg>
